<svg width="97" height="97" viewBox="0 0 97 97" fill="none" xmlns="http://www.w3.org/2000/svg">
<path d="M76.7916 34.047V28.2916C76.7916 12.6666 64.1251 0 48.5 0C32.8748 0 20.2084 12.6666 20.2084 28.2916V34.047C12.8527 37.2573 8.09398 44.516 8.08337 52.5416V76.7916C8.09664 87.9468 17.1364 96.9867 28.2916 97H68.7082C79.8634 96.9867 88.9031 87.9468 88.9166 76.7916V52.5416C88.9062 44.516 84.1473 37.2573 76.7916 34.047ZM52.5416 68.7084C52.5416 70.9405 50.7321 72.75 48.5 72.75C46.2678 72.75 44.4584 70.9405 44.4584 68.7084V60.625C44.4584 58.3929 46.2678 56.5834 48.5 56.5834C50.7321 56.5834 52.5416 58.3929 52.5416 60.625V68.7084ZM68.7084 32.3334H28.2916V28.2918C28.2916 17.1311 37.3391 8.0834 48.5 8.0834C59.6608 8.0834 68.7084 17.1309 68.7084 28.2918V32.3334Z" fill="#F97204"/>
</svg>
