<svg width="78" height="78" viewBox="0 0 78 78" fill="none" xmlns="http://www.w3.org/2000/svg">
<g clip-path="url(#clip0_496_508)">
<path d="M77.1098 17.7583L50.0116 44.8565C46.9901 47.8704 42.8966 49.5629 38.6289 49.5629C34.3613 49.5629 30.2678 47.8704 27.2463 44.8565L0.148078 17.7583C0.10301 18.2669 0 18.7272 0 19.2326V57.8616C0.00511144 62.1288 1.70251 66.2197 4.71988 69.2371C7.73724 72.2544 11.8282 73.9518 16.0954 73.957H61.1625C65.4297 73.9518 69.5206 72.2544 72.538 69.2371C75.5554 66.2197 77.2527 62.1288 77.2579 57.8616V19.2326C77.2579 18.7272 77.1548 18.2669 77.1098 17.7583Z" fill="#15B2D6"/>
<path d="M45.4598 40.3867L74.8629 10.9804C73.4385 8.61866 71.4296 6.66377 69.0298 5.30433C66.6301 3.94489 63.9205 3.22677 61.1625 3.21924H16.0954C13.3374 3.22677 10.6278 3.94489 8.22807 5.30433C5.82833 6.66377 3.81939 8.61866 2.39502 10.9804L31.7981 40.3867C33.6123 42.1936 36.0685 43.2081 38.629 43.2081C41.1895 43.2081 43.6457 42.1936 45.4598 40.3867Z" fill="#F97204"/>
</g>
<defs>
<clipPath id="clip0_496_508">
<rect width="77.2579" height="77.2579" fill="white"/>
</clipPath>
</defs>
</svg>
